<?xml version="1.0" encoding="UTF-8"?>
<svg xmlns="http://www.w3.org/2000/svg" xmlns:xlink="http://www.w3.org/1999/xlink" width="25px" height="25px" viewBox="0 0 25 25" version="1.1">
<g id="surface1">
<path style="fill-rule:nonzero;fill:rgb(100%,100%,100%);fill-opacity:1;stroke-width:1;stroke-linecap:butt;stroke-linejoin:miter;stroke:rgb(100%,100%,100%);stroke-opacity:1;stroke-miterlimit:4;" d="M 16.66 1.035 C 18.295 1.005 19.92 1.015 21.54 1.005 C 21.59 3.03 22.42 4.86 23.735 6.215 L 23.725 6.215 C 25.14 7.485 26.975 8.315 29 8.455 L 29.035 8.455 L 29.035 13.485 C 27.12 13.44 25.32 13 23.695 12.245 L 23.785 12.275 C 22.995 11.9 22.33 11.505 21.705 11.08 L 21.755 11.11 C 21.745 14.765 21.765 18.415 21.725 22.045 C 21.625 23.9 21.005 25.59 20.025 27 L 20.04 26.965 C 18.39 29.335 15.71 30.89 12.67 30.985 L 12.66 30.985 C 12.53 30.985 12.39 30.995 12.245 30.995 C 10.515 30.995 8.9 30.505 7.515 29.67 L 7.555 29.695 C 5.045 28.19 3.32 25.6 3 22.6 L 2.995 22.56 C 2.965 21.94 2.96 21.315 2.985 20.695 C 3.475 15.92 7.475 12.215 12.34 12.215 C 12.89 12.215 13.43 12.265 13.945 12.36 L 13.89 12.35 C 13.92 14.195 13.84 16.045 13.84 17.9 C 13.42 17.745 12.93 17.66 12.42 17.66 C 10.555 17.66 8.965 18.85 8.375 20.515 L 8.37 20.545 C 8.235 20.975 8.16 21.46 8.16 21.965 C 8.16 22.18 8.17 22.38 8.195 22.58 L 8.195 22.555 C 8.525 24.6 10.28 26.15 12.4 26.15 C 12.455 26.15 12.515 26.15 12.58 26.14 L 12.57 26.14 C 14.03 26.1 15.295 25.315 16.015 24.15 L 16.035 24.13 C 16.295 23.755 16.475 23.315 16.54 22.82 L 16.54 22.805 C 16.665 20.57 16.62 18.34 16.625 16.11 C 16.64 11.07 16.62 6.045 16.65 1.025 Z M 16.66 1.035 " transform="matrix(0.78125,0,0,0.78125,0,0)"/>
</g>
</svg>
